<svg width="159" height="110" viewBox="0 0 159 110" fill="none" xmlns="http://www.w3.org/2000/svg">
<rect width="65.6739" height="110" fill="#BF00FF"/>
<rect x="65.674" width="41.4783" height="110" fill="#0066FF"/>
<rect x="107.152" width="34.5652" height="110" fill="#62FF00"/>
<rect x="139.989" width="19.0109" height="110" fill="#FF9D00"/>
<path d="M147.539 98H120.989V58.47H134.677V86.849H147.539V98Z" fill="#E1DCED"/>
<path d="M94.4436 78.235C94.4436 81.5783 94.7583 83.9973 95.3876 85.492C96.0563 86.9473 97.4133 87.675 99.4586 87.675C101.543 87.675 102.9 86.9473 103.53 85.492C104.159 84.0367 104.474 81.6177 104.474 78.235C104.474 74.813 104.159 72.394 103.53 70.978C102.94 69.5227 101.602 68.795 99.5176 68.795C97.433 68.795 96.0563 69.5423 95.3876 71.037C94.7583 72.4923 94.4436 74.8917 94.4436 78.235ZM118.28 78.235C118.28 85.433 116.785 90.6643 113.796 93.929C110.806 97.1543 106.027 98.767 99.4586 98.767C92.9293 98.767 88.1503 97.1347 85.1216 93.87C82.1323 90.6053 80.6376 85.3937 80.6376 78.235C80.6376 71.037 82.1323 65.8253 85.1216 62.6C88.111 59.3353 92.89 57.703 99.4586 57.703C106.027 57.703 110.806 59.3353 113.796 62.6C116.785 65.8253 118.28 71.037 118.28 78.235Z" fill="#E1DCED"/>
<path d="M54.9182 78.235C54.9182 81.5783 55.2329 83.9973 55.8622 85.492C56.5309 86.9473 57.8879 87.675 59.9332 87.675C62.0179 87.675 63.3749 86.9473 64.0042 85.492C64.6336 84.0367 64.9482 81.6177 64.9482 78.235C64.9482 74.813 64.6336 72.394 64.0042 70.978C63.4142 69.5227 62.0769 68.795 59.9922 68.795C57.9076 68.795 56.5309 69.5423 55.8622 71.037C55.2329 72.4923 54.9182 74.8917 54.9182 78.235ZM78.7542 78.235C78.7542 85.433 77.2596 90.6643 74.2702 93.929C71.2809 97.1543 66.5019 98.767 59.9332 98.767C53.4039 98.767 48.6249 97.1347 45.5962 93.87C42.6069 90.6053 41.1122 85.3937 41.1122 78.235C41.1122 71.037 42.6069 65.8253 45.5962 62.6C48.5856 59.3353 53.3646 57.703 59.9332 57.703C66.5019 57.703 71.2809 59.3353 74.2702 62.6C77.2596 65.8253 78.7542 71.037 78.7542 78.235Z" fill="#E1DCED"/>
<path d="M10.7959 69.621V58.47H40.2959V69.621H32.6259V98H18.9379V69.621H10.7959Z" fill="#E1DCED"/>
<path d="M135.901 39.696H133.165V48H122.029V15.84H135.565C140.525 15.84 144.077 16.672 146.221 18.336C148.365 19.968 149.437 23.024 149.437 27.504C149.437 31.952 148.253 35.136 145.885 37.056L149.053 48H137.725L135.901 39.696ZM135.853 30.912C137.421 30.912 138.205 29.872 138.205 27.792C138.205 25.68 137.325 24.624 135.565 24.624H133.117V30.912H135.853Z" fill="#E1DCED"/>
<path d="M100.433 31.92C100.433 34.64 100.689 36.608 101.201 37.824C101.745 39.008 102.849 39.6 104.513 39.6C106.209 39.6 107.313 39.008 107.825 37.824C108.337 36.64 108.593 34.672 108.593 31.92C108.593 29.136 108.337 27.168 107.825 26.016C107.345 24.832 106.257 24.24 104.561 24.24C102.865 24.24 101.745 24.848 101.201 26.064C100.689 27.248 100.433 29.2 100.433 31.92ZM119.825 31.92C119.825 37.776 118.609 42.032 116.177 44.688C113.745 47.312 109.857 48.624 104.513 48.624C99.2009 48.624 95.3129 47.296 92.8489 44.64C90.4169 41.984 89.2009 37.744 89.2009 31.92C89.2009 26.064 90.4169 21.824 92.8489 19.2C95.2809 16.544 99.1689 15.216 104.513 15.216C109.857 15.216 113.745 16.544 116.177 19.2C118.609 21.824 119.825 26.064 119.825 31.92Z" fill="#E1DCED"/>
<path d="M88.5041 48H66.9041V15.84H78.0401V38.928H88.5041V48Z" fill="#E1DCED"/>
<path d="M45.3079 31.92C45.3079 34.64 45.5639 36.608 46.0759 37.824C46.6199 39.008 47.7239 39.6 49.3879 39.6C51.0839 39.6 52.1879 39.008 52.6999 37.824C53.2119 36.64 53.4679 34.672 53.4679 31.92C53.4679 29.136 53.2119 27.168 52.6999 26.016C52.2199 24.832 51.1319 24.24 49.4359 24.24C47.7399 24.24 46.6199 24.848 46.0759 26.064C45.5639 27.248 45.3079 29.2 45.3079 31.92ZM64.6999 31.92C64.6999 37.776 63.4839 42.032 61.0519 44.688C58.6199 47.312 54.7319 48.624 49.3879 48.624C44.0759 48.624 40.1879 47.296 37.7239 44.64C35.2919 41.984 34.0759 37.744 34.0759 31.92C34.0759 26.064 35.2919 21.824 37.7239 19.2C40.1559 16.544 44.0439 15.216 49.3879 15.216C54.7319 15.216 58.6199 16.544 61.0519 19.2C63.4839 21.824 64.6999 26.064 64.6999 31.92Z" fill="#E1DCED"/>
<path d="M33.048 47.376C29.656 48.208 26.184 48.624 22.632 48.624C19.08 48.624 16.344 48.128 14.424 47.136C12.504 46.112 11.112 44.416 10.248 42.048C9.416 39.68 9 36.272 9 31.824C9 25.456 9.976 21.104 11.928 18.768C13.912 16.4 17.672 15.216 23.208 15.216C25.512 15.216 28.232 15.536 31.368 16.176L33.048 16.512L32.76 25.104C30.136 24.784 27.704 24.624 25.464 24.624C23.256 24.624 21.832 25.056 21.192 25.92C20.552 26.752 20.232 28.496 20.232 31.152C20.232 33.808 20.376 35.648 20.664 36.672C20.984 37.696 21.48 38.384 22.152 38.736C22.824 39.056 23.912 39.216 25.416 39.216L32.904 38.928L33.048 47.376Z" fill="#E1DCED"/>
<path fill-rule="evenodd" clip-rule="evenodd" d="M114.989 92.4038C117.183 89.1241 118.28 84.4012 118.28 78.235C118.28 72.0688 117.183 67.3603 114.989 64.1095V52.47H140.677V80.849H153.539V104H114.989V92.4038ZM134.677 86.849V58.47H120.989V98H147.539V86.849H134.677Z" fill="#434343"/>
<path fill-rule="evenodd" clip-rule="evenodd" d="M76.4635 90.6553C77.9906 87.5199 78.7542 83.3798 78.7542 78.235C78.7542 73.0767 77.9866 68.9385 76.4514 65.8204C77.4107 63.0691 78.7952 60.6037 80.708 58.5354C85.2891 53.5417 92.0328 51.703 99.4586 51.703C106.884 51.703 113.628 53.5417 118.209 58.5354C119.302 59.7168 120.222 61.0277 120.989 62.4474V94.0563C120.224 95.4789 119.308 96.7938 118.221 97.9809L118.209 97.9943L118.196 98.0076C113.611 102.955 106.872 104.767 99.4586 104.767C92.0451 104.767 85.3289 102.916 80.723 97.9507L80.7097 97.9364L80.6965 97.9219C78.7996 95.8504 77.4215 93.3929 76.4635 90.6553ZM113.796 62.6C110.806 59.3353 106.027 57.703 99.4586 57.703C92.8899 57.703 88.1109 59.3353 85.1216 62.6C82.1323 65.8253 80.6376 71.037 80.6376 78.235C80.6376 85.3937 82.1323 90.6053 85.1216 93.87C88.1503 97.1347 92.9293 98.767 99.4586 98.767C106.027 98.767 110.806 97.1543 113.796 93.929C116.785 90.6643 118.28 85.433 118.28 78.235C118.28 71.037 116.785 65.8253 113.796 62.6ZM95.3876 85.492C94.7583 83.9973 94.4436 81.5783 94.4436 78.235C94.4436 74.8917 94.7583 72.4923 95.3876 71.037C96.0563 69.5423 97.4329 68.795 99.5176 68.795C101.602 68.795 102.94 69.5227 103.53 70.978C104.159 72.394 104.474 74.813 104.474 78.235C104.474 81.6177 104.159 84.0367 103.53 85.492C102.9 86.9473 101.543 87.675 99.4586 87.675C97.4133 87.675 96.0563 86.9473 95.3876 85.492Z" fill="#434343"/>
<path fill-rule="evenodd" clip-rule="evenodd" d="M35.8955 69.621C35.3477 72.3254 35.1122 75.2244 35.1122 78.235C35.1122 86.0181 36.702 93.0412 41.1711 97.9219L41.1843 97.9364L41.1976 97.9507C45.8036 102.916 52.5198 104.767 59.9332 104.767C67.3462 104.767 74.0855 102.955 78.6708 98.0076L78.6831 97.9943L78.6954 97.9809C80.6067 95.8936 81.9908 93.4114 82.9493 90.6436C81.4082 87.5111 80.6376 83.3749 80.6376 78.235C80.6376 73.0767 81.4052 68.9385 82.9404 65.8204C81.9811 63.0691 80.5966 60.6036 78.6838 58.5354C74.1028 53.5417 67.3591 51.703 59.9332 51.703C52.5077 51.703 45.7642 53.5416 41.1832 58.5349C40.8737 58.8695 40.5781 59.2144 40.2959 59.5692V69.621H35.8955ZM45.5962 62.6C42.6069 65.8253 41.1122 71.037 41.1122 78.235C41.1122 85.3937 42.6069 90.6053 45.5962 93.87C48.6249 97.1347 53.4039 98.767 59.9332 98.767C66.5019 98.767 71.2809 97.1543 74.2702 93.929C77.2596 90.6643 78.7542 85.433 78.7542 78.235C78.7542 71.037 77.2596 65.8253 74.2702 62.6C71.2809 59.3353 66.5019 57.703 59.9332 57.703C53.3646 57.703 48.5856 59.3353 45.5962 62.6ZM55.8622 85.492C55.2329 83.9973 54.9182 81.5783 54.9182 78.235C54.9182 74.8917 55.2329 72.4923 55.8622 71.037C56.5309 69.5423 57.9076 68.795 59.9922 68.795C62.0769 68.795 63.4142 69.5227 64.0042 70.978C64.6336 72.394 64.9482 74.813 64.9482 78.235C64.9482 81.6177 64.6336 84.0367 64.0042 85.492C63.3749 86.9473 62.0179 87.675 59.9332 87.675C57.8879 87.675 56.5309 86.9473 55.8622 85.492Z" fill="#434343"/>
<path fill-rule="evenodd" clip-rule="evenodd" d="M10.7959 58.47V69.621H18.9379V98H32.6259V69.621H40.2959V58.47H10.7959ZM38.6259 75.621V104H12.9379V75.621H4.7959V52.47H46.2959V61.8959C46.0527 62.1215 45.8195 62.3562 45.5962 62.6C43.9712 64.3533 42.7878 66.6937 42.0462 69.621C41.5946 71.4034 41.3068 73.4034 41.1827 75.621H38.6259Z" fill="#434343"/>
<path fill-rule="evenodd" clip-rule="evenodd" d="M122.029 48V15.84H135.565C140.525 15.84 144.077 16.672 146.221 18.336C148.365 19.968 149.437 23.024 149.437 27.504C149.437 31.952 148.253 35.136 145.885 37.056L149.053 48H137.725L135.901 39.696H133.165V48H122.029ZM116.029 54V44.8439C116.079 44.7925 116.128 44.7405 116.177 44.688C118.609 42.032 119.825 37.776 119.825 31.92C119.825 26.064 118.609 21.824 116.177 19.2C116.128 19.1468 116.079 19.0942 116.029 19.0421V9.84H135.565C140.88 9.84 146.114 10.6704 149.878 13.5792C154.256 16.9274 155.437 22.3877 155.437 27.504C155.437 31.4504 154.664 35.3476 152.558 38.5289L157.036 54H116.029ZM133.117 30.912H135.853C137.421 30.912 138.205 29.872 138.205 27.792C138.205 25.68 137.325 24.624 135.565 24.624H133.117V30.912Z" fill="#434343"/>
<path fill-rule="evenodd" clip-rule="evenodd" d="M92.8489 44.64C90.4169 41.984 89.2009 37.744 89.2009 31.92C89.2009 26.064 90.4169 21.824 92.8489 19.2C95.2809 16.544 99.1689 15.216 104.513 15.216C109.857 15.216 113.745 16.544 116.177 19.2C118.609 21.824 119.825 26.064 119.825 31.92C119.825 37.776 118.609 42.032 116.177 44.688C113.745 47.312 109.857 48.624 104.513 48.624C99.2009 48.624 95.3129 47.296 92.8489 44.64ZM107.825 26.016C107.345 24.832 106.257 24.24 104.561 24.24C102.865 24.24 101.745 24.848 101.201 26.064C100.689 27.248 100.433 29.2 100.433 31.92C100.433 34.64 100.689 36.608 101.201 37.824C101.745 39.008 102.849 39.6 104.513 39.6C106.209 39.6 107.313 39.008 107.825 37.824C108.337 36.64 108.593 34.672 108.593 31.92C108.593 29.136 108.337 27.168 107.825 26.016ZM88.4354 15.1353C92.459 10.7505 98.3115 9.216 104.513 9.216C110.714 9.216 116.566 10.7502 120.589 15.134C121.115 15.7028 121.594 16.3041 122.029 16.9345V46.9415C121.598 47.5705 121.123 48.1711 120.602 48.7399L120.59 48.7533L120.577 48.7666C116.549 53.1126 110.701 54.624 104.513 54.624C98.3167 54.624 92.4915 53.0769 88.4502 48.7207L88.4369 48.7063L88.4237 48.6919C88.217 48.4662 88.0176 48.2355 87.8252 48H88.5041V38.928H83.8208C83.3849 36.6962 83.2009 34.336 83.2009 31.92C83.2009 25.4663 84.5009 19.3906 88.4354 15.1353Z" fill="#434343"/>
<path fill-rule="evenodd" clip-rule="evenodd" d="M94.5041 54H60.9041V44.8439C60.9539 44.7925 61.0032 44.7405 61.0519 44.688C63.4839 42.032 64.6999 37.776 64.6999 31.92C64.6999 26.064 63.4839 21.824 61.0519 19.2C61.0032 19.1468 60.9539 19.0942 60.9041 19.0421V9.84H84.0401V32.928H89.2134C89.2704 35.1809 89.5215 37.1809 89.9668 38.928C90.5705 41.297 91.5312 43.201 92.8489 44.64C93.3433 45.1729 93.895 45.6524 94.5041 46.0784V54ZM88.5041 48V38.928H78.0401V15.84H66.9041V48H88.5041Z" fill="#434343"/>
<path fill-rule="evenodd" clip-rule="evenodd" d="M37.7239 44.64C35.2919 41.984 34.0759 37.744 34.0759 31.92C34.0759 26.064 35.2919 21.824 37.7239 19.2C40.1559 16.544 44.0439 15.216 49.3879 15.216C54.7319 15.216 58.6199 16.544 61.0519 19.2C63.4839 21.824 64.6999 26.064 64.6999 31.92C64.6999 37.776 63.4839 42.032 61.0519 44.688C58.6199 47.312 54.7319 48.624 49.3879 48.624C44.0759 48.624 40.1879 47.296 37.7239 44.64ZM52.6999 26.016C52.2199 24.832 51.1319 24.24 49.4359 24.24C47.7399 24.24 46.6199 24.848 46.0759 26.064C45.5639 27.248 45.3079 29.2 45.3079 31.92C45.3079 34.64 45.5639 36.608 46.0759 37.824C46.6199 39.008 47.7239 39.6 49.3879 39.6C51.0839 39.6 52.1879 39.008 52.6999 37.824C53.2119 36.64 53.4679 34.672 53.4679 31.92C53.4679 29.136 53.2119 27.168 52.6999 26.016ZM65.4651 15.1351C65.9907 15.7035 66.4693 16.3045 66.9041 16.9345V46.9415C66.4725 47.5705 65.9978 48.1711 65.477 48.7399L65.4648 48.7533L65.4525 48.7666C61.4245 53.1126 55.5762 54.624 49.3879 54.624C43.1917 54.624 37.3665 53.0769 33.3252 48.7207L33.3119 48.7063L33.2987 48.6919C32.9601 48.3221 32.6409 47.9389 32.3404 47.5433C32.5766 47.4895 32.8125 47.4338 33.048 47.376L32.904 38.928L28.7276 39.0886C28.2688 36.8096 28.0759 34.394 28.0759 31.92C28.0759 29.4398 28.2679 27.0154 28.7276 24.7287C30.0172 24.8083 31.3613 24.9334 32.76 25.104L33.048 16.512L32.2867 16.3597C32.6063 15.9366 32.9474 15.5279 33.3109 15.1348C37.3345 10.7504 43.1867 9.216 49.3879 9.216C55.5891 9.216 61.4415 10.7505 65.4651 15.1351Z" fill="#434343"/>
<path fill-rule="evenodd" clip-rule="evenodd" d="M39.1288 52.0624L34.4773 53.2033C30.6096 54.152 26.6574 54.624 22.632 54.624C18.6672 54.624 14.8208 54.0945 11.6699 52.4666L11.6351 52.4486L11.6005 52.4301C8.17154 50.6014 5.89678 47.6273 4.61147 44.1046L4.59915 44.0708L4.58724 44.0369C3.4208 40.7171 3 36.5106 3 31.824C3 25.3213 3.89851 19.0199 7.32385 14.9207L7.32887 14.9147C11.092 10.4232 17.2194 9.216 23.208 9.216C26.0332 9.216 29.1698 9.6043 32.556 10.2948L39.2151 11.6266L39.0005 18.0291C38.5378 18.3855 38.1123 18.7758 37.7239 19.2C36.3541 20.6779 35.3701 22.6684 34.7719 25.1714C34.3451 26.9567 34.1146 29.0027 34.0804 31.3095L32.0337 31.0599C29.9235 30.8025 27.9937 30.663 26.2374 30.6311C26.2339 30.7937 26.232 30.9672 26.232 31.152C26.232 31.9364 26.2457 32.6093 26.2701 33.1787L34.0872 32.8781C34.1413 35.1372 34.3901 37.1429 34.8334 38.8951C35.4366 41.2794 36.4001 43.1943 37.7239 44.64C38.1199 45.0669 38.5527 45.4595 39.0223 45.8177L39.1288 52.0624ZM20.664 36.672C20.376 35.648 20.232 33.808 20.232 31.152C20.232 28.496 20.552 26.752 21.192 25.92C21.832 25.056 23.256 24.624 25.464 24.624C25.893 24.624 26.329 24.6299 26.7721 24.6416C28.6426 24.6912 30.6385 24.8453 32.76 25.104L33.048 16.512L31.368 16.176C28.232 15.536 25.512 15.216 23.208 15.216C17.672 15.216 13.912 16.4 11.928 18.768C9.976 21.104 9 25.456 9 31.824C9 36.272 9.416 39.68 10.248 42.048C11.112 44.416 12.504 46.112 14.424 47.136C16.344 48.128 19.08 48.624 22.632 48.624C26.184 48.624 29.656 48.208 33.048 47.376L32.904 38.928L25.416 39.216C23.912 39.216 22.824 39.056 22.152 38.736C21.48 38.384 20.984 37.696 20.664 36.672Z" fill="#434343"/>
</svg>
