<svg width="155" height="164" viewBox="0 0 155 164" fill="none" xmlns="http://www.w3.org/2000/svg">
<mask id="path-1-outside-1_11_11" maskUnits="userSpaceOnUse" x="0" y="68" width="155" height="96" fill="black">
<rect fill="white" y="68" width="155" height="96"/>
<path d="M30.3729 106.376C26.9809 107.208 23.5089 107.624 19.9569 107.624C16.4049 107.624 13.6689 107.128 11.7489 106.136C9.82894 105.112 8.43694 103.416 7.57294 101.048C6.74094 98.68 6.32494 95.272 6.32494 90.824C6.32494 84.456 7.30094 80.104 9.25294 77.768C11.2369 75.4 14.9969 74.216 20.5329 74.216C22.8369 74.216 25.5569 74.536 28.6929 75.176L30.3729 75.512L30.0849 84.104C27.4609 83.784 25.0289 83.624 22.7889 83.624C20.5809 83.624 19.1569 84.056 18.5169 84.92C17.8769 85.752 17.5569 87.496 17.5569 90.152C17.5569 92.808 17.7009 94.648 17.9889 95.672C18.3089 96.696 18.8049 97.384 19.4769 97.736C20.1489 98.056 21.2369 98.216 22.7409 98.216L30.2289 97.928L30.3729 106.376ZM42.6328 90.92C42.6328 93.64 42.8888 95.608 43.4008 96.824C43.9448 98.008 45.0488 98.6 46.7128 98.6C48.4088 98.6 49.5128 98.008 50.0248 96.824C50.5368 95.64 50.7928 93.672 50.7928 90.92C50.7928 88.136 50.5368 86.168 50.0248 85.016C49.5448 83.832 48.4568 83.24 46.7608 83.24C45.0648 83.24 43.9448 83.848 43.4008 85.064C42.8888 86.248 42.6328 88.2 42.6328 90.92ZM62.0248 90.92C62.0248 96.776 60.8088 101.032 58.3768 103.688C55.9448 106.312 52.0568 107.624 46.7128 107.624C41.4008 107.624 37.5128 106.296 35.0488 103.64C32.6168 100.984 31.4008 96.744 31.4008 90.92C31.4008 85.064 32.6168 80.824 35.0488 78.2C37.4808 75.544 41.3688 74.216 46.7128 74.216C52.0568 74.216 55.9448 75.544 58.3768 78.2C60.8088 80.824 62.0248 85.064 62.0248 90.92ZM85.8291 107H64.2291V74.84H75.3651V97.928H85.8291V107ZM97.7578 90.92C97.7578 93.64 98.0138 95.608 98.5258 96.824C99.0698 98.008 100.174 98.6 101.838 98.6C103.534 98.6 104.638 98.008 105.15 96.824C105.662 95.64 105.918 93.672 105.918 90.92C105.918 88.136 105.662 86.168 105.15 85.016C104.67 83.832 103.582 83.24 101.886 83.24C100.19 83.24 99.0698 83.848 98.5258 85.064C98.0138 86.248 97.7578 88.2 97.7578 90.92ZM117.15 90.92C117.15 96.776 115.934 101.032 113.502 103.688C111.07 106.312 107.182 107.624 101.838 107.624C96.5258 107.624 92.6378 106.296 90.1738 103.64C87.7418 100.984 86.5258 96.744 86.5258 90.92C86.5258 85.064 87.7418 80.824 90.1738 78.2C92.6058 75.544 96.4938 74.216 101.838 74.216C107.182 74.216 111.07 75.544 113.502 78.2C115.934 80.824 117.15 85.064 117.15 90.92ZM133.226 98.696H130.49V107H119.354V74.84H132.89C137.85 74.84 141.402 75.672 143.546 77.336C145.69 78.968 146.762 82.024 146.762 86.504C146.762 90.952 145.578 94.136 143.21 96.056L146.378 107H135.05L133.226 98.696ZM133.178 89.912C134.746 89.912 135.53 88.872 135.53 86.792C135.53 84.68 134.65 83.624 132.89 83.624H130.442V89.912H133.178ZM8.12084 128.621V117.47H37.6208V128.621H29.9508V157H16.2628V128.621H8.12084ZM52.2432 137.235C52.2432 140.578 52.5578 142.997 53.1872 144.492C53.8558 145.947 55.2128 146.675 57.2582 146.675C59.3428 146.675 60.6998 145.947 61.3292 144.492C61.9585 143.037 62.2732 140.618 62.2732 137.235C62.2732 133.813 61.9585 131.394 61.3292 129.978C60.7392 128.523 59.4018 127.795 57.3172 127.795C55.2325 127.795 53.8558 128.542 53.1872 130.037C52.5578 131.492 52.2432 133.892 52.2432 137.235ZM76.0792 137.235C76.0792 144.433 74.5845 149.664 71.5952 152.929C68.6058 156.154 63.8268 157.767 57.2582 157.767C50.7288 157.767 45.9498 156.135 42.9212 152.87C39.9318 149.605 38.4372 144.394 38.4372 137.235C38.4372 130.037 39.9318 124.825 42.9212 121.6C45.9105 118.335 50.6895 116.703 57.2582 116.703C63.8268 116.703 68.6058 118.335 71.5952 121.6C74.5845 124.825 76.0792 130.037 76.0792 137.235ZM91.7686 137.235C91.7686 140.578 92.0832 142.997 92.7126 144.492C93.3812 145.947 94.7382 146.675 96.7836 146.675C98.8682 146.675 100.225 145.947 100.855 144.492C101.484 143.037 101.799 140.618 101.799 137.235C101.799 133.813 101.484 131.394 100.855 129.978C100.265 128.523 98.9272 127.795 96.8426 127.795C94.7579 127.795 93.3812 128.542 92.7126 130.037C92.0832 131.492 91.7686 133.892 91.7686 137.235ZM115.605 137.235C115.605 144.433 114.11 149.664 111.121 152.929C108.131 156.154 103.352 157.767 96.7836 157.767C90.2542 157.767 85.4752 156.135 82.4466 152.87C79.4572 149.605 77.9626 144.394 77.9626 137.235C77.9626 130.037 79.4572 124.825 82.4466 121.6C85.4359 118.335 90.2149 116.703 96.7836 116.703C103.352 116.703 108.131 118.335 111.121 121.6C114.11 124.825 115.605 130.037 115.605 137.235ZM144.864 157H118.314V117.47H132.002V145.849H144.864V157Z"/>
</mask>
<path d="M30.3729 106.376C26.9809 107.208 23.5089 107.624 19.9569 107.624C16.4049 107.624 13.6689 107.128 11.7489 106.136C9.82894 105.112 8.43694 103.416 7.57294 101.048C6.74094 98.68 6.32494 95.272 6.32494 90.824C6.32494 84.456 7.30094 80.104 9.25294 77.768C11.2369 75.4 14.9969 74.216 20.5329 74.216C22.8369 74.216 25.5569 74.536 28.6929 75.176L30.3729 75.512L30.0849 84.104C27.4609 83.784 25.0289 83.624 22.7889 83.624C20.5809 83.624 19.1569 84.056 18.5169 84.92C17.8769 85.752 17.5569 87.496 17.5569 90.152C17.5569 92.808 17.7009 94.648 17.9889 95.672C18.3089 96.696 18.8049 97.384 19.4769 97.736C20.1489 98.056 21.2369 98.216 22.7409 98.216L30.2289 97.928L30.3729 106.376ZM42.6328 90.92C42.6328 93.64 42.8888 95.608 43.4008 96.824C43.9448 98.008 45.0488 98.6 46.7128 98.6C48.4088 98.6 49.5128 98.008 50.0248 96.824C50.5368 95.64 50.7928 93.672 50.7928 90.92C50.7928 88.136 50.5368 86.168 50.0248 85.016C49.5448 83.832 48.4568 83.24 46.7608 83.24C45.0648 83.24 43.9448 83.848 43.4008 85.064C42.8888 86.248 42.6328 88.2 42.6328 90.92ZM62.0248 90.92C62.0248 96.776 60.8088 101.032 58.3768 103.688C55.9448 106.312 52.0568 107.624 46.7128 107.624C41.4008 107.624 37.5128 106.296 35.0488 103.64C32.6168 100.984 31.4008 96.744 31.4008 90.92C31.4008 85.064 32.6168 80.824 35.0488 78.2C37.4808 75.544 41.3688 74.216 46.7128 74.216C52.0568 74.216 55.9448 75.544 58.3768 78.2C60.8088 80.824 62.0248 85.064 62.0248 90.92ZM85.8291 107H64.2291V74.84H75.3651V97.928H85.8291V107ZM97.7578 90.92C97.7578 93.64 98.0138 95.608 98.5258 96.824C99.0698 98.008 100.174 98.6 101.838 98.6C103.534 98.6 104.638 98.008 105.15 96.824C105.662 95.64 105.918 93.672 105.918 90.92C105.918 88.136 105.662 86.168 105.15 85.016C104.67 83.832 103.582 83.24 101.886 83.24C100.19 83.24 99.0698 83.848 98.5258 85.064C98.0138 86.248 97.7578 88.2 97.7578 90.92ZM117.15 90.92C117.15 96.776 115.934 101.032 113.502 103.688C111.07 106.312 107.182 107.624 101.838 107.624C96.5258 107.624 92.6378 106.296 90.1738 103.64C87.7418 100.984 86.5258 96.744 86.5258 90.92C86.5258 85.064 87.7418 80.824 90.1738 78.2C92.6058 75.544 96.4938 74.216 101.838 74.216C107.182 74.216 111.07 75.544 113.502 78.2C115.934 80.824 117.15 85.064 117.15 90.92ZM133.226 98.696H130.49V107H119.354V74.84H132.89C137.85 74.84 141.402 75.672 143.546 77.336C145.69 78.968 146.762 82.024 146.762 86.504C146.762 90.952 145.578 94.136 143.21 96.056L146.378 107H135.05L133.226 98.696ZM133.178 89.912C134.746 89.912 135.53 88.872 135.53 86.792C135.53 84.68 134.65 83.624 132.89 83.624H130.442V89.912H133.178ZM8.12084 128.621V117.47H37.6208V128.621H29.9508V157H16.2628V128.621H8.12084ZM52.2432 137.235C52.2432 140.578 52.5578 142.997 53.1872 144.492C53.8558 145.947 55.2128 146.675 57.2582 146.675C59.3428 146.675 60.6998 145.947 61.3292 144.492C61.9585 143.037 62.2732 140.618 62.2732 137.235C62.2732 133.813 61.9585 131.394 61.3292 129.978C60.7392 128.523 59.4018 127.795 57.3172 127.795C55.2325 127.795 53.8558 128.542 53.1872 130.037C52.5578 131.492 52.2432 133.892 52.2432 137.235ZM76.0792 137.235C76.0792 144.433 74.5845 149.664 71.5952 152.929C68.6058 156.154 63.8268 157.767 57.2582 157.767C50.7288 157.767 45.9498 156.135 42.9212 152.87C39.9318 149.605 38.4372 144.394 38.4372 137.235C38.4372 130.037 39.9318 124.825 42.9212 121.6C45.9105 118.335 50.6895 116.703 57.2582 116.703C63.8268 116.703 68.6058 118.335 71.5952 121.6C74.5845 124.825 76.0792 130.037 76.0792 137.235ZM91.7686 137.235C91.7686 140.578 92.0832 142.997 92.7126 144.492C93.3812 145.947 94.7382 146.675 96.7836 146.675C98.8682 146.675 100.225 145.947 100.855 144.492C101.484 143.037 101.799 140.618 101.799 137.235C101.799 133.813 101.484 131.394 100.855 129.978C100.265 128.523 98.9272 127.795 96.8426 127.795C94.7579 127.795 93.3812 128.542 92.7126 130.037C92.0832 131.492 91.7686 133.892 91.7686 137.235ZM115.605 137.235C115.605 144.433 114.11 149.664 111.121 152.929C108.131 156.154 103.352 157.767 96.7836 157.767C90.2542 157.767 85.4752 156.135 82.4466 152.87C79.4572 149.605 77.9626 144.394 77.9626 137.235C77.9626 130.037 79.4572 124.825 82.4466 121.6C85.4359 118.335 90.2149 116.703 96.7836 116.703C103.352 116.703 108.131 118.335 111.121 121.6C114.11 124.825 115.605 130.037 115.605 137.235ZM144.864 157H118.314V117.47H132.002V145.849H144.864V157Z" fill="white"/>
<path d="M30.3729 106.376L31.8023 112.203L36.4537 111.062L36.3721 106.274L30.3729 106.376ZM11.7489 106.136L8.92541 111.43L8.95999 111.449L8.99482 111.467L11.7489 106.136ZM7.57294 101.048L1.91218 103.037L1.92409 103.071L1.9364 103.105L7.57294 101.048ZM9.25294 77.768L4.65381 73.9147L4.64878 73.9207L9.25294 77.768ZM28.6929 75.176L27.4932 81.0548L27.5047 81.0572L27.5162 81.0595L28.6929 75.176ZM30.3729 75.512L36.3696 75.713L36.5401 70.6266L31.5496 69.6285L30.3729 75.512ZM30.0849 84.104L29.3586 90.0599L35.8621 90.853L36.0816 84.305L30.0849 84.104ZM18.5169 84.92L23.2727 88.5783L23.3059 88.5351L23.3383 88.4914L18.5169 84.92ZM17.9889 95.672L12.213 97.2965L12.2364 97.3794L12.2621 97.4617L17.9889 95.672ZM19.4769 97.736L16.6929 103.051L16.7941 103.104L16.8973 103.153L19.4769 97.736ZM22.7409 98.216V104.216H22.8563L22.9715 104.212L22.7409 98.216ZM30.2289 97.928L36.2281 97.8257L36.1236 91.6968L29.9983 91.9324L30.2289 97.928ZM28.9436 100.549C26.0273 101.264 23.0355 101.624 19.9569 101.624V113.624C23.9823 113.624 27.9345 113.152 31.8023 112.203L28.9436 100.549ZM19.9569 101.624C16.8178 101.624 15.1921 101.161 14.5031 100.805L8.99482 111.467C12.1458 113.095 15.9921 113.624 19.9569 113.624V101.624ZM14.5725 100.842C14.1614 100.623 13.6522 100.205 13.2095 98.9914L1.9364 103.105C3.22171 106.627 5.49648 109.601 8.92541 111.43L14.5725 100.842ZM13.2337 99.0591C12.7361 97.6429 12.3249 95.0334 12.3249 90.824H0.324938C0.324938 95.5106 0.745742 99.7171 1.91218 103.037L13.2337 99.0591ZM12.3249 90.824C12.3249 84.5907 13.3784 82.1881 13.8571 81.6153L4.64878 73.9207C1.22344 78.0199 0.324938 84.3213 0.324938 90.824H12.3249ZM13.8521 81.6213C14.0569 81.3768 15.4496 80.216 20.5329 80.216V68.216C14.5443 68.216 8.41695 69.4232 4.65381 73.9147L13.8521 81.6213ZM20.5329 80.216C22.3125 80.216 24.6119 80.4668 27.4932 81.0548L29.8927 69.2972C26.502 68.6052 23.3614 68.216 20.5329 68.216V80.216ZM27.5162 81.0595L29.1962 81.3955L31.5496 69.6285L29.8696 69.2925L27.5162 81.0595ZM24.3763 75.311L24.0883 83.903L36.0816 84.305L36.3696 75.713L24.3763 75.311ZM30.8113 78.1481C27.9878 77.8038 25.3103 77.624 22.7889 77.624V89.624C24.7476 89.624 26.934 89.7642 29.3586 90.0599L30.8113 78.1481ZM22.7889 77.624C21.3511 77.624 19.8016 77.7579 18.3231 78.2064C16.8416 78.6559 15.0277 79.5502 13.6956 81.3486L23.3383 88.4914C22.6461 89.4258 21.8643 89.6721 21.8068 89.6896C21.7593 89.704 21.8086 89.6844 21.9886 89.663C22.1652 89.642 22.4271 89.624 22.7889 89.624V77.624ZM13.7612 81.2617C12.5897 82.7847 12.1239 84.5243 11.8955 85.7692C11.6462 87.1274 11.5569 88.621 11.5569 90.152H23.5569C23.5569 89.027 23.6276 88.3206 23.6984 87.9348C23.7323 87.7504 23.7509 87.7252 23.7192 87.8103C23.6908 87.8864 23.5708 88.1907 23.2727 88.5783L13.7612 81.2617ZM11.5569 90.152C11.5569 92.7793 11.675 95.3835 12.213 97.2965L23.7648 94.0475C23.7769 94.0903 23.7068 93.8248 23.6466 93.0559C23.5908 92.3427 23.5569 91.3852 23.5569 90.152H11.5569ZM12.2621 97.4617C12.8579 99.3684 14.1141 101.7 16.6929 103.051L22.261 92.421C23.4958 93.0678 23.76 94.0236 23.7158 93.8823L12.2621 97.4617ZM16.8973 103.153C18.8437 104.08 21.0741 104.216 22.7409 104.216V92.216C22.1829 92.216 21.8417 92.1851 21.6699 92.1598C21.5893 92.148 21.5842 92.1428 21.6376 92.1574C21.688 92.1711 21.8403 92.2159 22.0565 92.3188L16.8973 103.153ZM22.9715 104.212L30.4595 103.924L29.9983 91.9324L22.5103 92.2204L22.9715 104.212ZM24.2298 98.0303L24.3738 106.478L36.3721 106.274L36.2281 97.8257L24.2298 98.0303ZM43.4008 96.824L37.871 99.1523L37.9085 99.2413L37.9488 99.329L43.4008 96.824ZM50.0248 85.016L44.4644 87.2702L44.5017 87.3622L44.5419 87.4528L50.0248 85.016ZM43.4008 85.064L37.9239 82.6138L37.9086 82.6481L37.8937 82.6825L43.4008 85.064ZM58.3768 103.688L62.7774 107.767L62.7897 107.753L62.8019 107.74L58.3768 103.688ZM35.0488 103.64L30.6237 107.692L30.6369 107.706L30.6502 107.721L35.0488 103.64ZM35.0488 78.2L39.4494 82.2786L39.4617 82.2653L39.474 82.2519L35.0488 78.2ZM58.3768 78.2L53.9517 82.2519L53.9639 82.2653L53.9762 82.2786L58.3768 78.2ZM36.6328 90.92C36.6328 93.7709 36.8658 96.7649 37.871 99.1523L48.9306 94.4957C48.9606 94.5669 48.8644 94.3515 48.7747 93.662C48.6897 93.0089 48.6328 92.1087 48.6328 90.92H36.6328ZM37.9488 99.329C38.743 101.058 40.0487 102.504 41.8014 103.444C43.4645 104.336 45.204 104.6 46.7128 104.6V92.6C46.5577 92.6 46.9131 92.5684 47.4723 92.8683C48.121 93.2161 48.6026 93.7743 48.8529 94.319L37.9488 99.329ZM46.7128 104.6C48.2156 104.6 49.9706 104.343 51.6483 103.444C53.431 102.488 54.756 101 55.532 99.2055L44.5177 94.4425C44.6327 94.1765 44.8166 93.8656 45.092 93.563C45.3689 93.2586 45.6785 93.0285 45.9774 92.8683C46.551 92.5606 46.9061 92.6 46.7128 92.6V104.6ZM55.532 99.2055C56.5674 96.8109 56.7928 93.7711 56.7928 90.92H44.7928C44.7928 92.1281 44.7356 93.0353 44.6509 93.686C44.5607 94.3798 44.4667 94.5603 44.5177 94.4425L55.532 99.2055ZM56.7928 90.92C56.7928 88.0706 56.5755 84.9818 55.5077 82.5792L44.5419 87.4528C44.4683 87.2871 44.56 87.4309 44.6509 88.13C44.7353 88.7783 44.7928 89.6925 44.7928 90.92H56.7928ZM55.5852 82.7618C54.8415 80.9271 53.521 79.3955 51.7165 78.4137C50.0276 77.4947 48.2581 77.24 46.7608 77.24V89.24C46.9596 89.24 46.5821 89.2813 45.9811 88.9543C45.6665 88.7831 45.3413 88.5367 45.053 88.2101C44.7663 87.8854 44.579 87.553 44.4644 87.2702L55.5852 82.7618ZM46.7608 77.24C45.2314 77.24 43.4677 77.5101 41.7863 78.4229C40.0135 79.3852 38.7077 80.8618 37.9239 82.6138L48.8777 87.5142C48.6379 88.0502 48.1641 88.6148 47.5114 88.9691C46.9499 89.2739 46.5943 89.24 46.7608 89.24V77.24ZM37.8937 82.6825C36.8604 85.072 36.6328 88.0892 36.6328 90.92H48.6328C48.6328 89.7303 48.6898 88.837 48.7739 88.1962C48.8633 87.5145 48.9564 87.3335 48.908 87.4455L37.8937 82.6825ZM56.0248 90.92C56.0248 96.1621 54.8995 98.601 53.9517 99.6361L62.8019 107.74C66.7182 103.463 68.0248 97.3899 68.0248 90.92H56.0248ZM53.9762 99.6094C53.1402 100.511 51.2125 101.624 46.7128 101.624V113.624C52.9011 113.624 58.7494 112.113 62.7774 107.767L53.9762 99.6094ZM46.7128 101.624C42.2849 101.624 40.3341 100.515 39.4475 99.5593L30.6502 107.721C34.6915 112.077 40.5167 113.624 46.7128 113.624V101.624ZM39.474 99.5881C38.5218 98.5482 37.4008 96.1196 37.4008 90.92H25.4008C25.4008 97.3684 26.7119 103.42 30.6237 107.692L39.474 99.5881ZM37.4008 90.92C37.4008 85.6687 38.5299 83.2706 39.4494 82.2786L30.6482 74.1214C26.7037 78.3774 25.4008 84.4593 25.4008 90.92H37.4008ZM39.474 82.2519C40.314 81.3345 42.2322 80.216 46.7128 80.216V68.216C40.5054 68.216 34.6476 69.7535 30.6237 74.1481L39.474 82.2519ZM46.7128 80.216C51.1934 80.216 53.1116 81.3345 53.9517 82.2519L62.802 74.1481C58.778 69.7535 52.9202 68.216 46.7128 68.216V80.216ZM53.9762 82.2786C54.8957 83.2706 56.0248 85.6687 56.0248 90.92H68.0248C68.0248 84.4593 66.7219 78.3774 62.7774 74.1214L53.9762 82.2786ZM85.8291 107V113H91.8291V107H85.8291ZM64.2291 107H58.2291V113H64.2291V107ZM64.2291 74.84V68.84H58.2291V74.84H64.2291ZM75.3651 74.84H81.3651V68.84H75.3651V74.84ZM75.3651 97.928H69.3651V103.928H75.3651V97.928ZM85.8291 97.928H91.8291V91.928H85.8291V97.928ZM85.8291 101H64.2291V113H85.8291V101ZM70.2291 107V74.84H58.2291V107H70.2291ZM64.2291 80.84H75.3651V68.84H64.2291V80.84ZM69.3651 74.84V97.928H81.3651V74.84H69.3651ZM75.3651 103.928H85.8291V91.928H75.3651V103.928ZM79.8291 97.928V107H91.8291V97.928H79.8291ZM98.5258 96.824L92.996 99.1523L93.0335 99.2413L93.0738 99.329L98.5258 96.824ZM105.15 85.016L99.5894 87.2702L99.6267 87.3622L99.6669 87.4528L105.15 85.016ZM98.5258 85.064L93.0489 82.6138L93.0336 82.6481L93.0187 82.6825L98.5258 85.064ZM113.502 103.688L117.902 107.767L117.915 107.753L117.927 107.74L113.502 103.688ZM90.1738 103.64L85.7487 107.692L85.7619 107.706L85.7752 107.721L90.1738 103.64ZM90.1738 78.2L94.5744 82.2786L94.5867 82.2653L94.599 82.2519L90.1738 78.2ZM113.502 78.2L109.077 82.2519L109.089 82.2653L109.101 82.2786L113.502 78.2ZM91.7578 90.92C91.7578 93.7709 91.9908 96.7649 92.996 99.1523L104.056 94.4957C104.086 94.5669 103.989 94.3515 103.9 93.662C103.815 93.0089 103.758 92.1087 103.758 90.92H91.7578ZM93.0738 99.329C93.868 101.058 95.1737 102.504 96.9264 103.444C98.5895 104.336 100.329 104.6 101.838 104.6V92.6C101.683 92.6 102.038 92.5684 102.597 92.8683C103.246 93.2161 103.728 93.7743 103.978 94.319L93.0738 99.329ZM101.838 104.6C103.341 104.6 105.096 104.343 106.773 103.444C108.556 102.488 109.881 101 110.657 99.2055L99.6427 94.4425C99.7577 94.1765 99.9416 93.8656 100.217 93.563C100.494 93.2586 100.803 93.0285 101.102 92.8683C101.676 92.5606 102.031 92.6 101.838 92.6V104.6ZM110.657 99.2055C111.692 96.8109 111.918 93.7711 111.918 90.92H99.9178C99.9178 92.1281 99.8606 93.0353 99.7759 93.686C99.6857 94.3798 99.5917 94.5603 99.6427 94.4425L110.657 99.2055ZM111.918 90.92C111.918 88.0706 111.701 84.9818 110.633 82.5792L99.6669 87.4528C99.5933 87.2871 99.685 87.4309 99.7759 88.13C99.8603 88.7783 99.9178 89.6925 99.9178 90.92H111.918ZM110.71 82.7618C109.966 80.9271 108.646 79.3955 106.841 78.4137C105.153 77.4947 103.383 77.24 101.886 77.24V89.24C102.085 89.24 101.707 89.2813 101.106 88.9543C100.791 88.7831 100.466 88.5367 100.178 88.2101C99.8913 87.8854 99.704 87.553 99.5894 87.2702L110.71 82.7618ZM101.886 77.24C100.356 77.24 98.5927 77.5101 96.9113 78.4229C95.1385 79.3852 93.8327 80.8618 93.0489 82.6138L104.003 87.5142C103.763 88.0502 103.289 88.6148 102.636 88.9691C102.075 89.2739 101.719 89.24 101.886 89.24V77.24ZM93.0187 82.6825C91.9854 85.072 91.7578 88.0892 91.7578 90.92H103.758C103.758 89.7303 103.815 88.837 103.899 88.1962C103.988 87.5145 104.081 87.3335 104.033 87.4455L93.0187 82.6825ZM111.15 90.92C111.15 96.1621 110.024 98.601 109.077 99.6361L117.927 107.74C121.843 103.463 123.15 97.3899 123.15 90.92H111.15ZM109.101 99.6094C108.265 100.511 106.338 101.624 101.838 101.624V113.624C108.026 113.624 113.874 112.113 117.902 107.767L109.101 99.6094ZM101.838 101.624C97.4099 101.624 95.4591 100.515 94.5725 99.5593L85.7752 107.721C89.8165 112.077 95.6417 113.624 101.838 113.624V101.624ZM94.599 99.5881C93.6468 98.5482 92.5258 96.1196 92.5258 90.92H80.5258C80.5258 97.3684 81.8369 103.42 85.7487 107.692L94.599 99.5881ZM92.5258 90.92C92.5258 85.6687 93.6549 83.2706 94.5744 82.2786L85.7732 74.1214C81.8287 78.3774 80.5258 84.4593 80.5258 90.92H92.5258ZM94.599 82.2519C95.439 81.3345 97.3572 80.216 101.838 80.216V68.216C95.6304 68.216 89.7726 69.7535 85.7487 74.1481L94.599 82.2519ZM101.838 80.216C106.318 80.216 108.237 81.3345 109.077 82.2519L117.927 74.1481C113.903 69.7535 108.045 68.216 101.838 68.216V80.216ZM109.101 82.2786C110.021 83.2706 111.15 85.6687 111.15 90.92H123.15C123.15 84.4593 121.847 78.3774 117.902 74.1214L109.101 82.2786ZM133.226 98.696L139.086 97.4088L138.051 92.696H133.226V98.696ZM130.49 98.696V92.696H124.49V98.696H130.49ZM130.49 107V113H136.49V107H130.49ZM119.354 107H113.354V113H119.354V107ZM119.354 74.84V68.84H113.354V74.84H119.354ZM143.546 77.336L139.867 82.0759L139.89 82.0932L139.912 82.1102L143.546 77.336ZM143.21 96.056L139.431 91.3955L136.34 93.9018L137.447 97.7243L143.21 96.056ZM146.378 107V113H154.361L152.141 105.332L146.378 107ZM135.05 107L129.19 108.287L130.225 113H135.05V107ZM130.442 83.624V77.624H124.442V83.624H130.442ZM130.442 89.912H124.442V95.912H130.442V89.912ZM133.226 92.696H130.49V104.696H133.226V92.696ZM124.49 98.696V107H136.49V98.696H124.49ZM130.49 101H119.354V113H130.49V101ZM125.354 107V74.84H113.354V107H125.354ZM119.354 80.84H132.89V68.84H119.354V80.84ZM132.89 80.84C137.485 80.84 139.345 81.6704 139.867 82.0759L147.225 72.5961C143.459 69.6736 138.216 68.84 132.89 68.84V80.84ZM139.912 82.1102C139.912 82.1103 139.945 82.1331 140.005 82.2212C140.07 82.3156 140.179 82.5049 140.296 82.8381C140.541 83.535 140.762 84.7003 140.762 86.504H152.762C152.762 81.3788 151.577 75.9084 147.18 72.5618L139.912 82.1102ZM140.762 86.504C140.762 90.0016 139.841 91.0633 139.431 91.3955L146.989 100.717C151.315 97.2087 152.762 91.9024 152.762 86.504H140.762ZM137.447 97.7243L140.615 108.668L152.141 105.332L148.973 94.3876L137.447 97.7243ZM146.378 101H135.05V113H146.378V101ZM140.91 105.713L139.086 97.4088L127.366 99.9832L129.19 108.287L140.91 105.713ZM133.178 95.912C135.415 95.912 137.971 95.0813 139.733 92.7438C141.255 90.7256 141.53 88.4138 141.53 86.792H129.53C129.53 87.2502 129.414 86.4984 130.151 85.5202C130.562 84.9747 131.127 84.5186 131.781 84.2295C132.399 83.9559 132.914 83.912 133.178 83.912V95.912ZM141.53 86.792C141.53 85.0506 141.19 82.6275 139.479 80.5749C137.594 78.3127 135.012 77.624 132.89 77.624V89.624C132.742 89.624 132.342 89.603 131.817 89.3929C131.255 89.168 130.701 88.7852 130.261 88.2571C129.43 87.2605 129.53 86.4214 129.53 86.792H141.53ZM132.89 77.624H130.442V89.624H132.89V77.624ZM124.442 83.624V89.912H136.442V83.624H124.442ZM130.442 95.912H133.178V83.912H130.442V95.912ZM8.12084 128.621H2.12084V134.621H8.12084V128.621ZM8.12084 117.47V111.47H2.12084V117.47H8.12084ZM37.6208 117.47H43.6208V111.47H37.6208V117.47ZM37.6208 128.621V134.621H43.6208V128.621H37.6208ZM29.9508 128.621V122.621H23.9508V128.621H29.9508ZM29.9508 157V163H35.9508V157H29.9508ZM16.2628 157H10.2628V163H16.2628V157ZM16.2628 128.621H22.2628V122.621H16.2628V128.621ZM14.1208 128.621V117.47H2.12084V128.621H14.1208ZM8.12084 123.47H37.6208V111.47H8.12084V123.47ZM31.6208 117.47V128.621H43.6208V117.47H31.6208ZM37.6208 122.621H29.9508V134.621H37.6208V122.621ZM23.9508 128.621V157H35.9508V128.621H23.9508ZM29.9508 151H16.2628V163H29.9508V151ZM22.2628 157V128.621H10.2628V157H22.2628ZM16.2628 122.621H8.12084V134.621H16.2628V122.621ZM53.1872 144.492L47.6574 146.82L47.6948 146.909L47.7351 146.997L53.1872 144.492ZM61.3292 129.978L55.7687 132.232L55.806 132.324L55.8463 132.415L61.3292 129.978ZM53.1872 130.037L47.7103 127.587L47.6949 127.621L47.68 127.656L53.1872 130.037ZM71.5952 152.929L75.9957 157.008L76.0081 156.994L76.0203 156.981L71.5952 152.929ZM42.9212 152.87L38.496 156.922L38.5092 156.936L38.5225 156.951L42.9212 152.87ZM42.9212 121.6L47.3217 125.679L47.3341 125.665L47.3463 125.652L42.9212 121.6ZM71.5952 121.6L67.17 125.652L67.1823 125.665L67.1946 125.679L71.5952 121.6ZM46.2432 137.235C46.2432 140.709 46.5348 144.154 47.6574 146.82L58.717 142.164C58.5809 141.84 58.2432 140.447 58.2432 137.235H46.2432ZM47.7351 146.997C48.5917 148.861 49.9918 150.409 51.871 151.417C53.6606 152.377 55.5587 152.675 57.2582 152.675V140.675C56.9123 140.675 57.1092 140.61 57.5419 140.842C57.7664 140.962 58.0031 141.137 58.2159 141.366C58.4268 141.593 58.5609 141.817 58.6392 141.987L47.7351 146.997ZM57.2582 152.675C58.9553 152.675 60.8707 152.384 62.6749 151.417C64.5841 150.393 66.0017 148.804 66.8363 146.873L55.822 142.111C55.9078 141.912 56.0538 141.661 56.2829 141.409C56.5135 141.156 56.7683 140.968 57.004 140.842C57.4511 140.602 57.6457 140.675 57.2582 140.675V152.675ZM66.8363 146.873C67.9891 144.208 68.2732 140.717 68.2732 137.235H56.2732C56.2732 138.758 56.2013 139.936 56.0873 140.812C56.0309 141.246 55.9689 141.569 55.9127 141.799C55.8554 142.035 55.8159 142.125 55.822 142.111L66.8363 146.873ZM68.2732 137.235C68.2732 133.748 67.9972 130.208 66.812 127.541L55.8463 132.415C55.8313 132.381 55.967 132.704 56.0873 133.628C56.201 134.502 56.2732 135.688 56.2732 137.235H68.2732ZM66.8896 127.724C66.0908 125.753 64.6806 124.12 62.7513 123.07C60.9378 122.084 59.0087 121.795 57.3172 121.795V133.795C57.7103 133.795 57.4922 133.87 57.016 133.611C56.7637 133.474 56.4921 133.27 56.2487 132.994C56.007 132.72 55.8559 132.447 55.7687 132.232L66.8896 127.724ZM57.3172 121.795C55.5934 121.795 53.6684 122.1 51.8586 123.082C49.9575 124.114 48.5564 125.695 47.7103 127.587L58.6641 132.487C58.5909 132.651 58.4619 132.872 58.254 133.1C58.044 133.33 57.8085 133.507 57.5837 133.629C57.1506 133.864 56.9563 133.795 57.3172 133.795V121.795ZM47.68 127.656C46.5294 130.316 46.2432 133.781 46.2432 137.235H58.2432C58.2432 135.734 58.3148 134.573 58.4282 133.708C58.4843 133.281 58.546 132.961 58.6019 132.733C58.6589 132.5 58.6987 132.408 58.6943 132.418L47.68 127.656ZM70.0792 137.235C70.0792 143.819 68.6752 147.233 67.17 148.877L76.0203 156.981C80.4938 152.095 82.0792 145.047 82.0792 137.235H70.0792ZM67.1946 148.85C65.8012 150.354 62.9825 151.767 57.2582 151.767V163.767C64.6711 163.767 71.4104 161.955 75.9957 157.008L67.1946 148.85ZM57.2582 151.767C51.613 151.767 48.7712 150.354 47.3198 148.789L38.5225 156.951C43.1285 161.916 49.8447 163.767 57.2582 163.767V151.767ZM47.3463 148.818C45.8368 147.17 44.4372 143.769 44.4372 137.235H32.4372C32.4372 145.018 34.0269 152.041 38.496 156.922L47.3463 148.818ZM44.4372 137.235C44.4372 130.642 45.845 127.272 47.3217 125.679L38.5206 117.521C34.0187 122.379 32.4372 129.432 32.4372 137.235H44.4372ZM47.3463 125.652C48.7437 124.126 51.5529 122.703 57.2582 122.703V110.703C49.8261 110.703 43.0773 112.545 38.496 117.548L47.3463 125.652ZM57.2582 122.703C62.9634 122.703 65.7726 124.126 67.17 125.652L76.0203 117.548C71.439 112.545 64.6902 110.703 57.2582 110.703V122.703ZM67.1946 125.679C68.6714 127.272 70.0792 130.642 70.0792 137.235H82.0792C82.0792 129.432 80.4976 122.379 75.9957 117.521L67.1946 125.679ZM92.7126 144.492L87.1827 146.82L87.2202 146.909L87.2605 146.997L92.7126 144.492ZM100.855 129.978L95.2941 132.232L95.3314 132.324L95.3717 132.415L100.855 129.978ZM92.7126 130.037L87.2356 127.587L87.2203 127.621L87.2054 127.656L92.7126 130.037ZM111.121 152.929L115.521 157.008L115.533 156.994L115.546 156.981L111.121 152.929ZM82.4466 152.87L78.0214 156.922L78.0346 156.936L78.0479 156.951L82.4466 152.87ZM82.4466 121.6L86.8471 125.679L86.8595 125.665L86.8717 125.652L82.4466 121.6ZM111.121 121.6L106.695 125.652L106.708 125.665L106.72 125.679L111.121 121.6ZM85.7686 137.235C85.7686 140.709 86.0602 144.154 87.1827 146.82L98.2424 142.164C98.1063 141.84 97.7686 140.447 97.7686 137.235H85.7686ZM87.2605 146.997C88.1171 148.861 89.5171 150.409 91.3964 151.417C93.186 152.377 95.084 152.675 96.7836 152.675V140.675C96.4377 140.675 96.6346 140.61 97.0673 140.842C97.2918 140.962 97.5285 141.137 97.7413 141.366C97.9522 141.593 98.0863 141.817 98.1646 141.987L87.2605 146.997ZM96.7836 152.675C98.4806 152.675 100.396 152.384 102.2 151.417C104.109 150.393 105.527 148.804 106.362 146.873L95.3474 142.111C95.4331 141.912 95.5792 141.661 95.8083 141.409C96.0389 141.156 96.2937 140.968 96.5294 140.842C96.9765 140.602 97.1711 140.675 96.7836 140.675V152.675ZM106.362 146.873C107.514 144.208 107.799 140.717 107.799 137.235H95.7986C95.7986 138.758 95.7267 139.936 95.6127 140.812C95.5563 141.246 95.4942 141.569 95.4381 141.799C95.3808 142.035 95.3413 142.125 95.3474 142.111L106.362 146.873ZM107.799 137.235C107.799 133.748 107.523 130.208 106.337 127.541L95.3717 132.415C95.3567 132.381 95.4924 132.704 95.6127 133.628C95.7263 134.502 95.7986 135.688 95.7986 137.235H107.799ZM106.415 127.724C105.616 125.753 104.206 124.12 102.277 123.07C100.463 122.084 98.5341 121.795 96.8426 121.795V133.795C97.2356 133.795 97.0176 133.87 96.5414 133.611C96.2891 133.474 96.0175 133.27 95.7741 132.994C95.5324 132.72 95.3813 132.447 95.2941 132.232L106.415 127.724ZM96.8426 121.795C95.1188 121.795 93.1938 122.1 91.384 123.082C89.4829 124.114 88.0818 125.695 87.2356 127.587L98.1895 132.487C98.1163 132.651 97.9873 132.872 97.7794 133.1C97.5694 133.33 97.3339 133.507 97.1091 133.629C96.676 133.864 96.4817 133.795 96.8426 133.795V121.795ZM87.2054 127.656C86.0548 130.316 85.7686 133.781 85.7686 137.235H97.7686C97.7686 135.734 97.8402 134.573 97.9536 133.708C98.0097 133.281 98.0714 132.961 98.1273 132.733C98.1843 132.5 98.2241 132.408 98.2197 132.418L87.2054 127.656ZM109.605 137.235C109.605 143.819 108.201 147.233 106.695 148.877L115.546 156.981C120.019 152.095 121.605 145.047 121.605 137.235H109.605ZM106.72 148.85C105.327 150.354 102.508 151.767 96.7836 151.767V163.767C104.197 163.767 110.936 161.955 115.521 157.008L106.72 148.85ZM96.7836 151.767C91.1383 151.767 88.2965 150.354 86.8452 148.789L78.0479 156.951C82.6539 161.916 89.3701 163.767 96.7836 163.767V151.767ZM86.8717 148.818C85.3622 147.17 83.9626 143.769 83.9626 137.235H71.9626C71.9626 145.018 73.5523 152.041 78.0214 156.922L86.8717 148.818ZM83.9626 137.235C83.9626 130.642 85.3704 127.272 86.8471 125.679L78.046 117.521C73.5441 122.379 71.9626 129.432 71.9626 137.235H83.9626ZM86.8717 125.652C88.2691 124.126 91.0783 122.703 96.7836 122.703V110.703C89.3515 110.703 82.6027 112.545 78.0214 117.548L86.8717 125.652ZM96.7836 122.703C102.489 122.703 105.298 124.126 106.695 125.652L115.546 117.548C110.964 112.545 104.216 110.703 96.7836 110.703V122.703ZM106.72 125.679C108.197 127.272 109.605 130.642 109.605 137.235H121.605C121.605 129.432 120.023 122.379 115.521 117.521L106.72 125.679ZM144.864 157V163H150.864V157H144.864ZM118.314 157H112.314V163H118.314V157ZM118.314 117.47V111.47H112.314V117.47H118.314ZM132.002 117.47H138.002V111.47H132.002V117.47ZM132.002 145.849H126.002V151.849H132.002V145.849ZM144.864 145.849H150.864V139.849H144.864V145.849ZM144.864 151H118.314V163H144.864V151ZM124.314 157V117.47H112.314V157H124.314ZM118.314 123.47H132.002V111.47H118.314V123.47ZM126.002 117.47V145.849H138.002V117.47H126.002ZM132.002 151.849H144.864V139.849H132.002V151.849ZM138.864 145.849V157H150.864V145.849H138.864Z" fill="#434343" mask="url(#path-1-outside-1_11_11)"/>
<rect x="5" width="59.0652" height="63.3" fill="#BF00FF"/>
<rect x="64.0652" width="37.3043" height="63.3" fill="#0066FF"/>
<rect x="101.37" width="31.087" height="63.3" fill="#62FF00"/>
<rect x="130.902" width="17.0978" height="63.3" fill="#FF9D00"/>
</svg>
